<svg width="61" height="58" viewBox="0 0 61 58" fill="none" xmlns="http://www.w3.org/2000/svg">
<path d="M0 47.3052V37.3474H4.77373C4.77373 37.3474 4.08251 31.9472 10.4763 32.2281V31.3208C10.4763 31.3208 17.2589 31.8608 17.2589 27.7351H18.1877V47.3269H0V47.3052Z" fill="white"/>
<path fill-rule="evenodd" clip-rule="evenodd" d="M43.5687 21.0174V21.9462H42.7263V22.7022H43.0719V23.631H42.3807L42.4023 47.262H37.4773C37.4773 47.262 39.2702 31.256 30.3059 30.8888C21.1473 30.5216 22.789 47.262 22.789 47.262H18.2312L18.2096 23.631H17.5184V22.7022H17.864V21.9462H17V20.9958H18.6632H18.9441V20.3261H19.2897V16.7836H19.0089V15.682L19.2897 15.4444V13.5436H18.1448V11.9987H41.739V11.3731H18V11.7075H17.6264L17.5616 10.9731H19.2897L22.2273 9.87146L30.2843 0L38.3414 9.89306L41.279 10.9947H43.0071L42.9423 11.7291H42.4239V13.5652H41.279V15.466L41.5598 15.7036V16.8052H41.279V20.3477H41.6246V21.0174H41.9055H43.5687ZM39.8077 21.1357H20V20.5101H39.8077V21.1357ZM24 26.1903H37.1547V25.5647H24V26.1903ZM21.2982 43.4059H18.5117V42.7803H21.2982V43.4059ZM18.5117 38.4378H21.2982V37.8122H18.5117V38.4378ZM21.2982 34.2473H18.5117V33.6217H21.2982V34.2473ZM39.2998 34.2473H42.0863V33.6217H39.2998V34.2473ZM42.0863 38.4378H39.2998V37.8122H42.0863V38.4378ZM39.2998 43.4059H42.0863V42.7803H39.2998V43.4059Z" fill="white"/>
<path d="M60.5881 47.3052V37.3474H55.8143C55.8143 37.3474 56.5056 31.9472 50.1118 32.2281V31.3208C50.1118 31.3208 43.3292 31.8608 43.3292 27.7351H42.4004V47.3269H60.5881V47.3052Z" fill="white"/>
<path d="M0.0215773 52H2.04987C3.92712 52 5.006 53.0789 5.006 54.5893V54.6109C5.006 56.1213 3.90555 57.2649 2.00672 57.2649H0V52H0.0215773ZM1.48885 53.2731V55.9703H2.07145C2.95613 55.9703 3.53873 55.4956 3.53873 54.6325V54.6109C3.53873 53.7694 2.95613 53.2731 2.07145 53.2731H1.48885Z" fill="white"/>
<path d="M5.7832 52H10.0124V53.2299H7.2289V54.0283H9.75348V55.1719H7.2289V56.0134H10.0556V57.2434H5.7832V52Z" fill="white"/>
<path d="M12.4717 52H14.09L15.2983 55.3229L16.4851 52H18.0819L15.9457 57.2865H14.6079L12.4717 52Z" fill="white"/>
<path d="M18.5996 52H22.8288V53.2299H20.0453V54.0283H22.5699V55.1719H20.0453V56.0134H22.872V57.2434H18.5996V52Z" fill="white"/>
<path d="M23.6055 52H27.8347V53.2299H25.0512V54.0283H27.5757V55.1719H25.0512V56.0134H27.8778V57.2434H23.6055V52Z" fill="white"/>
<path d="M28.6339 52H31.1153C31.9137 52 32.4747 52.2158 32.8199 52.561C33.122 52.8631 33.2946 53.2731 33.2946 53.7909V53.8125C33.2946 54.6325 32.8631 55.1503 32.2158 55.4308L33.4673 57.2649H31.7842L30.7269 55.6682H30.0796V57.2649H28.6123V52H28.6339ZM31.0506 54.5246C31.5469 54.5246 31.8274 54.2872 31.8274 53.8988V53.8772C31.8274 53.4673 31.5253 53.2515 31.029 53.2515H30.058V54.5246H31.0506Z" fill="white"/>
<path d="M34.0273 52H36.293C37.6092 52 38.4723 52.6905 38.4723 53.8341V53.8557C38.4723 55.1072 37.5229 55.7545 36.2283 55.7545H35.4946V57.2649H34.0273V52V52ZM36.1851 54.6109C36.703 54.6109 37.0266 54.3304 37.0266 53.9204V53.8988C37.0266 53.4457 36.703 53.2083 36.1851 53.2083H35.4946V54.5893H36.1851V54.6109Z" fill="white"/>
<path d="M38.9258 54.6539C38.9258 53.2082 40.091 52.0431 41.623 52.0431C43.1766 52.0431 44.3202 53.1867 44.3202 54.6324V54.6539C44.3202 56.0996 43.155 57.2648 41.623 57.2648C40.0694 57.2433 38.9258 56.0781 38.9258 54.6539ZM42.8961 54.6539C42.8961 53.8987 42.3782 53.2946 41.623 53.2946C40.8462 53.2946 40.3499 53.9203 40.3499 54.6324V54.6539C40.3499 55.3876 40.8678 56.0133 41.6446 56.0133C42.3782 55.9918 42.8961 55.366 42.8961 54.6539Z" fill="white"/>
<path d="M44.8604 54.6539C44.8604 53.2082 46.0255 52.0431 47.5576 52.0431C49.1111 52.0431 50.2548 53.1867 50.2548 54.6324V54.6539C50.2548 56.0996 49.0896 57.2648 47.5576 57.2648C46.004 57.2433 44.8604 56.0781 44.8604 54.6539ZM48.8306 54.6539C48.8306 53.8987 48.3128 53.2946 47.5576 53.2946C46.7808 53.2946 46.2845 53.9203 46.2845 54.6324V54.6539C46.2845 55.3876 46.8023 56.0133 47.5791 56.0133C48.3343 55.9918 48.8306 55.366 48.8306 54.6539Z" fill="white"/>
<path d="M50.9884 52H53.4698C54.2682 52 54.8292 52.2158 55.1744 52.561C55.4765 52.8631 55.6491 53.2731 55.6491 53.7909V53.8125C55.6491 54.6325 55.2176 55.1503 54.5703 55.4308L55.8218 57.2649H54.1387L53.0814 55.6682H52.4341V57.2649H50.9668V52H50.9884ZM53.4051 54.5246C53.9013 54.5246 54.1819 54.2872 54.1819 53.8988V53.8772C54.1819 53.4673 53.8798 53.2515 53.3835 53.2515H52.4341V54.5246H53.4051Z" fill="white"/>
<path d="M57.9569 53.2731H56.4033V52H60.9994V53.2731H59.4242V57.2434H57.9569V53.2731Z" fill="white"/>
</svg>
